<svg xmlns="http://www.w3.org/2000/svg" viewBox="0 0 100 100"><path d="M4.1 81.3v-2.9c7 .2 9.1-.2 9.7-6.9.7-7.3 0-15 0-22.3 0-7.3.7-15 0-22.3-.6-6.5-2.8-7-9.7-6.8v-2.9h53l2.6 21.2h-2.4c-1.2-10.3-4-16.9-15.1-18.2a50.4 50.4 0 0 0-15.5-.1c-5.7 1.4-4.6 3.7-4.6 9.3v17c9.6 0 18.6 1.4 18.6-11H43v24.9h-2.3c0-12.3-9.1-11-18.6-11v18.6c0 6.3-1.2 8.5 4.9 10.3 4.4 1.3 14.9.6 19.3-.5C57 75.2 58.2 66.4 60 57l2.3.2-3.9 24.1H4.1zm63.5 0v-2.9c7.2.2 9.5 0 10.2-6.9.7-7.3 0-15 0-22.4 0-7.3.7-15.1 0-22.4-.7-6.7-3.1-7.1-10.2-6.8V17c9.4.8 19.4.8 28.7 0v2.9c-7.1-.2-9.5 0-10.2 6.8-.7 7.3 0 15 0 22.4 0 7.3-.7 15.1 0 22.4.7 6.7 3.1 7.1 10.2 6.9v2.9c-9.3-.8-19.3-.8-28.7 0z"/></svg>