<svg xmlns="http://www.w3.org/2000/svg" viewBox="0 0 433 674"><defs/><style>.st0{fill:none;stroke:#000;stroke-miterlimit:10}.st1{font-family:&apos;LMRoman10-Italic&apos;}.st2{font-size:16px}.st3{font-size:13px}.st4{font-size:8px}.st5{stroke-width:.5}.st5,.st6,.st7{fill:none;stroke:#000;stroke-miterlimit:10}.st6{stroke-dasharray:3,3;stroke-width:.5}.st7{stroke-width:.75}.st8{font-family:&apos;LMRoman10-Bold&apos;}.st9{font-size:23px}</style><g id="Layer_2"><path d="M259 241v176" class="st0"/><path d="M259 235l-5 9 5-2 5 2-5-9z"/><path d="M246 406h174" class="st0"/><path d="M426 406l-8 4 1-4-1-5 8 5z"/><text class="st1 st2" transform="translate(426 417)">f</text><text transform="translate(304 429)"><tspan x="0" y="0" class="st1 st3">SE</tspan><tspan x="16" y="0" class="st1 st4">f</tspan></text><text transform="rotate(-90 289 36)"><tspan x="0" y="0" class="st1 st3">SE</tspan><tspan x="16" y="0" class="st1 st4">n</tspan></text><text transform="translate(279 429)"><tspan x="0" y="0" class="st1 st3">IE</tspan><tspan x="14" y="0" class="st1 st4">f</tspan></text><text transform="rotate(-90 281 44)"><tspan x="0" y="0" class="st1 st3">IE</tspan><tspan x="14" y="0" class="st1 st4">n</tspan></text><text class="st1 st2" transform="translate(246 235)">n</text><path d="M259 272l122 134M259 272l40 134" class="st5"/><path d="M287 261l43 145" class="st6"/><path d="M293 276c9 59 42 89 101 91M274 314c7 52 36 79 85 81" class="st7"/><path d="M321 406v-67h-62" class="st6"/><path d="M297 407l1-109h-39M280 339v67" class="st6"/><path d="M282 414h15" class="st5"/><path d="M279 414l4 2-1-2 1-2-4 2z"/><g><path d="M300 414h21" class="st5"/><path d="M297 414l4 2-1-2 1-2-4 2z"/></g><g><path d="M255 301v38" class="st5"/><path d="M255 298l-3 4 3-1 2 1-2-4z"/></g><g><path d="M240 336v-38" class="st5"/><path d="M240 339l2-4-2 1-3-1 3 4z"/></g><g><path d="M259 463v176" class="st0"/><path d="M259 457l-5 9 5-2 5 2-5-9z"/><path d="M246 627h174" class="st0"/><path d="M426 627l-8 5 1-5-1-4 8 4z"/><text class="st1 st2" transform="translate(426 639)">f</text><text transform="translate(304 651)"><tspan x="0" y="0" class="st1 st3">SE</tspan><tspan x="16" y="0" class="st1 st4">f</tspan></text><text transform="rotate(-90 400 147)"><tspan x="0" y="0" class="st1 st3">SE</tspan><tspan x="16" y="0" class="st1 st4">n</tspan></text><text transform="translate(279 651)"><tspan x="0" y="0" class="st1 st3">IE</tspan><tspan x="14" y="0" class="st1 st4">f</tspan></text><text transform="rotate(-90 392 154)"><tspan x="0" y="0" class="st1 st3">IE</tspan><tspan x="14" y="0" class="st1 st4">n</tspan></text><text class="st1 st2" transform="translate(246 457)">n</text><path d="M259 494l122 133M259 494l40 133" class="st5"/><path d="M287 483l43 144" class="st6"/><path d="M293 498c9 59 42 89 101 91M274 536c7 52 36 78 85 81" class="st7"/><path d="M321 627v-66h-62" class="st6"/><path d="M297 629l1-110h-39M280 561v66" class="st6"/><path d="M279 636h15" class="st5"/><path d="M297 636l-5 2 1-2-1-3 5 3z"/><g><path d="M300 636h21" class="st5"/><path d="M297 636l4 2-1-2 1-3-4 3z"/></g><g><path d="M255 519v39" class="st5"/><path d="M255 561l-3-5 3 1 2-1-2 5z"/></g><g><path d="M240 561v-39" class="st5"/><path d="M240 519l2 5-2-1-3 1 3-5z"/></g></g><g><path d="M37 463v176" class="st0"/><path d="M37 457l-5 9 5-2 5 2-5-9z"/><path d="M24 627h174" class="st0"/><path d="M204 627l-9 5 2-5-2-4 9 4z"/><text class="st1 st2" transform="translate(204 639)">f</text><text transform="translate(82 651)"><tspan x="0" y="0" class="st1 st3">SE</tspan><tspan x="16" y="0" class="st1 st4">f</tspan></text><text transform="rotate(-90 289 258)"><tspan x="0" y="0" class="st1 st3">SE</tspan><tspan x="16" y="0" class="st1 st4">n</tspan></text><text transform="translate(57 651)"><tspan x="0" y="0" class="st1 st3">IE</tspan><tspan x="14" y="0" class="st1 st4">f</tspan></text><text transform="rotate(-90 276 263)"><tspan x="0" y="0" class="st1 st3">IE</tspan><tspan x="14" y="0" class="st1 st4">n</tspan></text><text class="st1 st2" transform="translate(24 457)">n</text><path d="M37 494l122 133M37 494l40 133" class="st5"/><path d="M65 483l43 144" class="st6"/><path d="M71 498c9 59 42 89 100 91M44 507c9 69 47 104 114 107" class="st7"/><path d="M51 539H37M75 629l1-110H37M51 539v87" class="st6"/><path d="M60 636h15" class="st5"/><path d="M57 636l4 2-1-2 1-3-4 3z"/><path d="M78 636h21" class="st5"/><path d="M75 636l4 2-1-2 1-3-4 3z"/><g><path d="M33 522v39" class="st5"/><path d="M32 519l-2 5 2-1 3 1-3-5z"/></g><g><path d="M17 537v-18" class="st5"/><path d="M17 540l3-4-3 1-2-1 2 4z"/></g><path d="M96 627v-69H37" class="st6"/></g><g><path d="M259 20v175" class="st0"/><path d="M259 13l-5 9 5-2 5 2-5-9z"/><path d="M246 184h174" class="st0"/><path d="M426 184l-8 5 1-5-1-5 8 5z"/><text class="st1 st2" transform="translate(426 195)">f</text><text transform="translate(304 207)"><tspan x="0" y="0" class="st1 st3">SE</tspan><tspan x="16" y="0" class="st1 st4">f</tspan></text><text class="st8 st9" transform="translate(131 210)">A</text><text class="st8 st9" transform="translate(363 210)">B</text><text class="st8 st9" transform="translate(129 439)">C</text><text class="st8 st9" transform="translate(131 668)">E</text><text class="st8 st9" transform="translate(363 668)">F</text><text class="st8 st9" transform="translate(363 439)">D</text><text transform="rotate(-90 178 -75)"><tspan x="0" y="0" class="st1 st3">SE</tspan><tspan x="16" y="0" class="st1 st4">n</tspan></text><text transform="translate(279 207)"><tspan x="0" y="0" class="st1 st3">IE</tspan><tspan x="14" y="0" class="st1 st4">f</tspan></text><text transform="rotate(-90 165 -70)"><tspan x="0" y="0" class="st1 st3">IE</tspan><tspan x="14" y="0" class="st1 st4">n</tspan></text><text class="st1 st2" transform="translate(246 13)">n</text><path d="M259 51l122 133M259 51l40 133" class="st5"/><path d="M287 40l43 144" class="st6"/><path d="M293 54c9 59 42 89 101 91M266 64c9 68 48 104 114 107" class="st7"/><path d="M273 96h-14M297 185l1-109h-39M273 96v86" class="st6"/><path d="M279 192h15" class="st5"/><path d="M297 192l-5 2 1-2-1-2 5 2z"/><path d="M300 192h21" class="st5"/><path d="M297 192l4 2-1-2 1-2-4 2z"/><g><path d="M255 79v38" class="st5"/><path d="M255 76l-3 4 3-1 2 1-2-4z"/></g><g><path d="M240 93V76" class="st5"/><path d="M240 96l2-4-2 1-3-1 3 4z"/></g><path d="M318 184v-69h-59" class="st6"/></g><g><path d="M34 241v176" class="st0"/><path d="M34 235l-5 9 5-2 5 2-5-9z"/><path d="M21 406h174" class="st0"/><path d="M201 406l-8 4 1-4-1-5 8 5z"/><text class="st1 st2" transform="translate(201 417)">f</text><text transform="translate(55 439)"><tspan x="0" y="0" class="st1 st3">SE</tspan><tspan x="16" y="0" class="st1 st4">f</tspan></text><text transform="rotate(-90 166 140)"><tspan x="0" y="0" class="st1 st3">SE</tspan><tspan x="16" y="0" class="st1 st4">n</tspan></text><text transform="translate(48 422)"><tspan x="0" y="0" class="st1 st3">IE</tspan><tspan x="14" y="0" class="st1 st4">f</tspan></text><text transform="rotate(-90 159 148)"><tspan x="0" y="0" class="st1 st3">IE</tspan><tspan x="14" y="0" class="st1 st4">n</tspan></text><text class="st1 st2" transform="translate(21 235)">n</text><path d="M34 272l123 134M34 272l40 134" class="st5"/><path d="M49 261l43 145" class="st6"/><path d="M48 252c8 59 38 88 91 91M57 338c4 41 20 62 48 64" class="st7"/><path d="M73 405v-91H34" class="st6"/><path d="M55 409h4" class="st5"/><path d="M62 409l-4 2v-4l4 2z"/><path d="M57 428h16" class="st5"/><path d="M54 428l4 2-1-3 1-2-4 3z"/><g><path d="M30 282v32" class="st5"/><path d="M30 279l-3 5 3-1 2 1-2-5z"/></g><g><path d="M15 362v-82" class="st5"/><path d="M15 365l2-4-2 1-3-1 3 4z"/></g><path d="M54 406l1-127H34" class="st6"/><path d="M62 405v-40H34" class="st6"/></g><g><path d="M34 20v175" class="st0"/><path d="M34 13l-5 9 5-2 5 2-5-9z"/><path d="M21 184h174" class="st0"/><path d="M201 184l-8 5 1-5-1-5 8 5z"/><text class="st1 st2" transform="translate(201 195)">f</text><text transform="translate(55 218)"><tspan x="0" y="0" class="st1 st3">SE</tspan><tspan x="16" y="0" class="st1 st4">f</tspan></text><text transform="rotate(-90 55 29)"><tspan x="0" y="0" class="st1 st3">SE</tspan><tspan x="16" y="0" class="st1 st4">n</tspan></text><text transform="translate(48 200)"><tspan x="0" y="0" class="st1 st3">IE</tspan><tspan x="14" y="0" class="st1 st4">f</tspan></text><text transform="rotate(-90 48 37)"><tspan x="0" y="0" class="st1 st3">IE</tspan><tspan x="14" y="0" class="st1 st4">n</tspan></text><text class="st1 st2" transform="translate(21 13)">n</text><path d="M34 51l123 133M34 51l40 133" class="st5"/><path d="M49 40l43 144" class="st6"/><path d="M48 31c8 58 38 88 91 90M57 116c4 41 20 63 48 64" class="st7"/><path d="M73 183V92H34" class="st6"/><path d="M55 187h4" class="st5"/><path d="M62 187l-4 3v-5l4 2z"/><path d="M54 206h16" class="st5"/><path d="M73 206l-4 2 1-2-1-3 4 3z"/><g><path d="M30 58v31" class="st5"/><path d="M30 92l-3-4 3 1 2-1-2 4z"/></g><g><path d="M15 141V58" class="st5"/><path d="M15 144l2-5-2 1-3-1 3 5z"/></g><path d="M54 184l1-126H34" class="st6"/><path d="M62 183v-39H34" class="st6"/></g></g></svg>